<?xml version="1.0" encoding="utf-8"?>
<!-- Generator: Adobe Illustrator 22.0.1, SVG Export Plug-In . SVG Version: 6.00 Build 0)  -->
<svg version="1.1" id="Calque_1" xmlns="http://www.w3.org/2000/svg" xmlns:xlink="http://www.w3.org/1999/xlink" x="0px" y="0px"
	 viewBox="0 0 584.6 581.9" style="enable-background:new 0 0 584.6 581.9;" xml:space="preserve">
<style type="text/css">
	.st0{fill:#30122D;}
	.st1{fill:#FFD6BF;}
</style>
<rect x="14" y="492" class="st0" width="560" height="80"/>
<rect x="14" y="12" class="st0" width="160" height="80"/>
<rect x="254" y="12" class="st0" width="320" height="80"/>
<rect x="414" y="73" class="st0" width="80" height="179"/>
<rect x="14" y="172" class="st0" width="320" height="80"/>
<rect x="94" y="232" class="st0" width="80" height="109"/>
<rect x="14" y="332" class="st0" width="160" height="80"/>
<rect x="254" y="332" class="st0" width="320" height="80"/>
<rect x="479" y="172" class="st0" width="95" height="80"/>
<rect x="14" y="110.3" class="st1" width="390.5" height="43.5"/>
<rect x="254" y="387" class="st0" width="80" height="114"/>
<rect x="287.2" y="185.7" transform="matrix(-1.836970e-16 1 -1 -1.836970e-16 590.1875 -175.3125)" class="st1" width="191.1" height="43.5"/>
<rect x="361" y="269.2" class="st1" width="213" height="43.5"/>
</svg>
