# Blender v2.79 (sub 0) OBJ File: 'test.blend'
# www.blender.org
mtllib pos.mtl
o Cylinder.000_Cylinder.000
v 31.784899 0.044463 0.079254
v 31.784899 0.023775 0.090312
v 31.784899 0.011084 0.059672
v 31.784899 0.026038 0.051679
v 31.784899 -0.022018 -0.139905
v 31.784899 0.001327 -0.137606
v 31.784899 -0.005143 -0.105079
v 31.784899 -0.022018 -0.106741
v 31.665236 0.044463 0.079254
v 31.665236 0.026038 0.051679
v 31.665236 0.011084 0.059672
v 31.665236 0.023775 0.090312
v 31.665236 -0.022018 -0.139905
v 31.665236 -0.022018 -0.106741
v 31.665236 -0.005143 -0.105079
v 31.665236 0.001327 -0.137606
v 31.665236 -0.121514 -0.086724
v 31.665236 -0.093939 -0.068298
v 31.665236 -0.083182 -0.081406
v 31.665236 -0.106633 -0.104857
v 31.665236 -0.005143 0.064594
v 31.665236 0.001327 0.097122
v 31.665236 0.011084 -0.100157
v 31.665236 0.023775 -0.130797
v 31.665236 -0.070074 -0.092163
v 31.665236 -0.088499 -0.119739
v 31.665236 -0.022018 0.066256
v 31.665236 -0.022018 0.099421
v 31.665236 0.026038 -0.092163
v 31.665236 0.044463 -0.119739
v 31.665236 -0.055119 -0.100157
v 31.665236 -0.067811 -0.130797
v 31.665236 -0.038893 0.064594
v 31.665236 -0.045363 0.097122
v 31.665236 0.039146 -0.081406
v 31.665236 0.062597 -0.104857
v 31.665236 -0.038893 -0.105079
v 31.665236 -0.045363 -0.137606
v 31.665236 -0.055120 0.059672
v 31.665236 -0.067811 0.090312
v 31.665236 0.049903 -0.068298
v 31.665236 0.077478 -0.086724
v 31.665236 -0.070074 0.051679
v 31.665236 -0.088499 0.079254
v 31.665236 0.057896 -0.053344
v 31.665236 0.088536 -0.066035
v 31.665236 -0.083182 0.040921
v 31.665236 -0.106633 0.064372
v 31.665236 0.062819 -0.037117
v 31.665236 0.095346 -0.043587
v 31.665236 -0.093939 0.027814
v 31.665236 -0.121514 0.046239
v 31.665236 0.064481 -0.020242
v 31.665236 0.097645 -0.020242
v 31.665236 -0.101932 0.012859
v 31.665236 -0.132572 0.025551
v 31.665236 0.062819 -0.003367
v 31.665236 0.095346 0.003103
v 31.665236 -0.106854 -0.003367
v 31.665236 -0.139382 0.003103
v 31.665236 0.057896 0.012859
v 31.665236 0.088536 0.025551
v 31.665236 -0.108516 -0.020242
v 31.665236 -0.141681 -0.020242
v 31.665236 0.049903 0.027814
v 31.665236 0.077478 0.046239
v 31.665236 -0.106854 -0.037117
v 31.665236 -0.139382 -0.043588
v 31.665236 0.039146 0.040921
v 31.665236 0.062597 0.064372
v 31.665236 -0.101932 -0.053344
v 31.665236 -0.132572 -0.066036
v 31.784899 -0.121514 -0.086724
v 31.784899 -0.106633 -0.104857
v 31.784899 -0.083182 -0.081406
v 31.784899 -0.093939 -0.068298
v 31.784899 0.001327 0.097122
v 31.784899 -0.005143 0.064594
v 31.784899 0.023775 -0.130797
v 31.784899 0.011084 -0.100157
v 31.784899 -0.088499 -0.119739
v 31.784899 -0.070074 -0.092163
v 31.784899 -0.022018 0.099421
v 31.784899 -0.022018 0.066256
v 31.784899 0.044463 -0.119739
v 31.784899 0.026038 -0.092163
v 31.784899 -0.067811 -0.130797
v 31.784899 -0.055119 -0.100157
v 31.784899 -0.045363 0.097122
v 31.784899 -0.038893 0.064594
v 31.784899 0.062597 -0.104857
v 31.784899 0.039146 -0.081406
v 31.784899 -0.045363 -0.137606
v 31.784899 -0.038893 -0.105079
v 31.784899 -0.067811 0.090312
v 31.784899 -0.055120 0.059672
v 31.784899 0.077478 -0.086724
v 31.784899 0.049903 -0.068298
v 31.784899 -0.088499 0.079254
v 31.784899 -0.070074 0.051679
v 31.784899 0.088536 -0.066035
v 31.784899 0.057896 -0.053344
v 31.784899 -0.106633 0.064372
v 31.784899 -0.083182 0.040921
v 31.784899 0.095346 -0.043587
v 31.784899 0.062819 -0.037117
v 31.784899 -0.121514 0.046239
v 31.784899 -0.093939 0.027814
v 31.784899 0.097645 -0.020242
v 31.784899 0.064481 -0.020242
v 31.784899 -0.132572 0.025551
v 31.784899 -0.101932 0.012859
v 31.784899 0.095346 0.003103
v 31.784899 0.062818 -0.003367
v 31.784899 -0.139382 0.003103
v 31.784899 -0.106854 -0.003367
v 31.784899 0.088536 0.025551
v 31.784899 0.057896 0.012859
v 31.784899 -0.141681 -0.020242
v 31.784899 -0.108517 -0.020242
v 31.784899 0.077478 0.046239
v 31.784899 0.049903 0.027814
v 31.784899 -0.139382 -0.043588
v 31.784899 -0.106854 -0.037117
v 31.784899 0.062597 0.064372
v 31.784899 0.039146 0.040921
v 31.784899 -0.132572 -0.066036
v 31.784899 -0.101932 -0.053344
vt 0.000000 0.000000
vt 0.000000 0.000000
vt 0.000000 0.000000
vt 0.000000 0.000000
vt 0.000000 0.000000
vt 0.000000 0.000000
vt 0.000000 0.000000
vt 0.000000 0.000000
vt 0.000000 0.000000
vt 0.000000 0.000000
vt 0.000000 0.000000
vt 0.000000 0.000000
vt 0.000000 0.000000
vt 0.000000 0.000000
vt 0.000000 0.000000
vt 0.000000 0.000000
vt 0.000000 0.000000
vt 0.000000 0.000000
vt 0.000000 0.000000
vt 0.000000 0.000000
vt 0.000000 0.000000
vt 0.000000 0.000000
vt 0.000000 0.000000
vt 0.000000 0.000000
vt 0.000000 0.000000
vt 0.000000 0.000000
vt 0.000000 0.000000
vt 0.000000 0.000000
vt 0.000000 0.000000
vt 0.000000 0.000000
vt 0.000000 0.000000
vt 0.000000 0.000000
vt 0.000000 0.000000
vt 0.000000 0.000000
vt 0.000000 0.000000
vt 0.000000 0.000000
vt 0.000000 0.000000
vt 0.000000 0.000000
vt 0.000000 0.000000
vt 0.000000 0.000000
vt 0.000000 0.000000
vt 0.000000 0.000000
vt 0.000000 0.000000
vt 0.000000 0.000000
vt 0.000000 0.000000
vt 0.000000 0.000000
vt 0.000000 0.000000
vt 0.000000 0.000000
vt 0.000000 0.000000
vt 0.000000 0.000000
vt 0.000000 0.000000
vt 0.000000 0.000000
vt 0.000000 0.000000
vt 0.000000 0.000000
vt 0.000000 0.000000
vt 0.000000 0.000000
vt 0.000000 0.000000
vt 0.000000 0.000000
vt 0.000000 0.000000
vt 0.000000 0.000000
vt 0.000000 0.000000
vt 0.000000 0.000000
vt 0.000000 0.000000
vt 0.000000 0.000000
vt 0.000000 0.000000
vt 0.000000 0.000000
vt 0.000000 0.000000
vt 0.000000 0.000000
vt 0.000000 0.000000
vt 0.000000 0.000000
vt 0.000000 0.000000
vt 0.000000 0.000000
vt 0.000000 0.000000
vt 0.000000 0.000000
vt 0.000000 0.000000
vt 0.000000 0.000000
vt 0.000000 0.000000
vt 0.000000 0.000000
vt 0.000000 0.000000
vt 0.000000 0.000000
vt 0.000000 0.000000
vt 0.000000 0.000000
vt 0.000000 0.000000
vt 0.000000 0.000000
vt 0.000000 0.000000
vt 0.000000 0.000000
vt 0.000000 0.000000
vt 0.000000 0.000000
vt 0.000000 0.000000
vt 0.000000 0.000000
vt 0.000000 0.000000
vt 0.000000 0.000000
vt 0.000000 0.000000
vt 0.000000 0.000000
vt 0.000000 0.000000
vt 0.000000 0.000000
vt 0.000000 0.000000
vt 0.000000 0.000000
vt 0.000000 0.000000
vt 0.000000 0.000000
vt 0.000000 0.000000
vt 0.000000 0.000000
vt 0.000000 0.000000
vt 0.000000 0.000000
vt 0.000000 0.000000
vt 0.000000 0.000000
vt 0.000000 0.000000
vt 0.000000 0.000000
vt 0.000000 0.000000
vt 0.000000 0.000000
vt 0.000000 0.000000
vt 0.000000 0.000000
vt 0.000000 0.000000
vt 0.000000 0.000000
vt 0.000000 0.000000
vt 0.000000 0.000000
vt 0.000000 0.000000
vt 0.000000 0.000000
vt 0.000000 0.000000
vt 0.000000 0.000000
vt 0.000000 0.000000
vt 0.000000 0.000000
vt 0.000000 0.000000
vt 0.000000 0.000000
vt 0.000000 0.000000
vt 0.000000 0.000000
vt 0.000000 0.000000
vt 0.000000 0.000000
vn 1.0000 -0.0001 0.0000
vn 1.0000 0.0001 0.0000
vn -1.0000 -0.0001 0.0000
vn -1.0000 -0.0002 0.0000
vn -1.0000 0.0000 0.0000
vn -1.0000 0.0001 0.0000
vn -1.0000 0.0003 0.0000
vn -1.0000 0.0002 0.0000
vn 1.0000 0.0000 0.0000
vn 1.0000 0.0002 -0.0000
vn 1.0000 0.0004 -0.0000
vn 0.0000 -0.9952 -0.0980
vn 0.0000 0.6344 -0.7730
vn 0.0000 -0.9569 -0.2903
vn 0.0000 0.7730 -0.6344
vn 0.0000 -0.8819 -0.4714
vn 0.0000 0.0980 -0.9952
vn 0.0000 0.8819 -0.4714
vn 0.0000 -0.7730 -0.6344
vn 0.0000 0.2903 -0.9569
vn 0.0000 0.9569 -0.2903
vn 0.0000 -0.6344 -0.7730
vn 0.0000 0.4714 -0.8819
vn 0.0000 0.9952 -0.0980
vn 0.0000 -0.4714 -0.8819
vn 0.0000 0.9952 0.0980
vn 0.0000 -0.2903 -0.9569
vn 0.0000 0.9569 0.2903
vn 0.0000 -0.0980 -0.9952
vn 0.0000 0.8819 0.4714
vn 0.0000 -0.0980 0.9952
vn 0.0000 0.7730 0.6344
vn 0.0000 -0.2903 0.9569
vn 0.0000 0.6344 0.7730
vn 0.0000 -0.4714 0.8819
vn 0.0000 0.4714 0.8819
vn 0.0000 -0.6344 0.7730
vn 0.0000 0.2903 0.9569
vn 0.0000 -0.7730 0.6344
vn 0.0000 0.0980 0.9952
vn 0.0000 -0.8819 0.4714
vn 0.0000 -0.9569 0.2903
vn 0.0000 -0.9952 0.0980
usemtl Material.009
s off
f 1/1/1 2/2/1 3/3/1 4/4/1
f 5/5/2 6/6/2 7/7/2 8/8/2
f 9/9/3 10/10/3 11/11/3 12/12/3
f 13/13/4 14/14/4 15/15/4 16/16/4
f 17/17/3 18/18/3 19/19/3 20/20/3
f 12/12/5 11/11/5 21/21/5 22/22/5
f 16/16/6 15/15/6 23/23/6 24/24/6
f 20/20/5 19/19/5 25/25/5 26/26/5
f 22/22/7 21/21/7 27/27/7 28/28/7
f 24/24/5 23/23/5 29/29/5 30/30/5
f 26/26/3 25/25/3 31/31/3 32/32/3
f 28/28/5 27/27/5 33/33/5 34/34/5
f 30/30/3 29/29/3 35/35/3 36/36/3
f 32/32/4 31/31/4 37/37/4 38/38/4
f 34/34/6 33/33/6 39/39/6 40/40/6
f 36/36/5 35/35/5 41/41/5 42/42/5
f 38/38/8 37/37/8 14/14/8 13/13/8
f 40/40/6 39/39/6 43/43/6 44/44/6
f 42/42/5 41/41/5 45/45/5 46/46/5
f 44/44/5 43/43/5 47/47/5 48/48/5
f 46/46/6 45/45/6 49/49/6 50/50/6
f 48/48/5 47/47/5 51/51/5 52/52/5
f 50/50/5 49/49/5 53/53/5 54/54/5
f 52/52/5 51/51/5 55/55/5 56/56/5
f 54/54/5 53/53/5 57/57/5 58/58/5
f 56/56/5 55/55/5 59/59/5 60/60/5
f 58/58/5 57/57/5 61/61/5 62/62/5
f 60/60/5 59/59/5 63/63/5 64/64/5
f 62/62/5 61/61/5 65/65/5 66/66/5
f 64/64/5 63/63/5 67/67/5 68/68/5
f 66/66/6 65/65/6 69/69/6 70/70/6
f 68/68/5 67/67/5 71/71/5 72/72/5
f 70/70/6 69/69/6 10/10/6 9/9/6
f 72/72/5 71/71/5 18/18/5 17/17/5
f 73/73/9 74/74/9 75/75/9 76/76/9
f 2/2/9 77/77/9 78/78/9 3/3/9
f 6/6/9 79/79/9 80/80/9 7/7/9
f 74/74/9 81/81/9 82/82/9 75/75/9
f 77/77/9 83/83/9 84/84/9 78/78/9
f 79/79/1 85/85/1 86/86/1 80/80/1
f 81/81/9 87/87/9 88/88/9 82/82/9
f 83/83/10 89/89/10 90/90/10 84/84/10
f 85/85/9 91/91/9 92/92/9 86/86/9
f 87/87/11 93/93/11 94/94/11 88/88/11
f 89/89/9 95/95/9 96/96/9 90/90/9
f 91/91/9 97/97/9 98/98/9 92/92/9
f 93/93/9 5/5/9 8/8/9 94/94/9
f 95/95/9 99/99/9 100/100/9 96/96/9
f 97/97/9 101/101/9 102/102/9 98/98/9
f 99/99/9 103/103/9 104/104/9 100/100/9
f 101/101/9 105/105/9 106/106/9 102/102/9
f 103/103/9 107/107/9 108/108/9 104/104/9
f 105/105/1 109/109/1 110/110/1 106/106/1
f 107/107/9 111/111/9 112/112/9 108/108/9
f 109/109/9 113/113/9 114/114/9 110/110/9
f 111/111/9 115/115/9 116/116/9 112/112/9
f 113/113/9 117/117/9 118/118/9 114/114/9
f 115/115/9 119/119/9 120/120/9 116/116/9
f 117/117/9 121/121/9 122/122/9 118/118/9
f 119/119/2 123/123/2 124/124/2 120/120/2
f 121/121/9 125/125/9 126/126/9 122/122/9
f 123/123/2 127/127/2 128/128/2 124/124/2
f 125/125/9 1/1/9 4/4/9 126/126/9
f 127/127/9 73/73/9 76/76/9 128/128/9
f 64/64/12 68/68/12 123/123/12 119/119/12
f 47/47/13 43/43/13 100/100/13 104/104/13
f 68/68/14 72/72/14 127/127/14 123/123/14
f 51/51/15 47/47/15 104/104/15 108/108/15
f 72/72/16 17/17/16 73/73/16 127/127/16
f 13/13/17 16/16/17 6/6/17 5/5/17
f 55/55/18 51/51/18 108/108/18 112/112/18
f 17/17/19 20/20/19 74/74/19 73/73/19
f 16/16/20 24/24/20 79/79/20 6/6/20
f 59/59/21 55/55/21 112/112/21 116/116/21
f 20/20/22 26/26/22 81/81/22 74/74/22
f 24/24/23 30/30/23 85/85/23 79/79/23
f 63/63/24 59/59/24 116/116/24 120/120/24
f 26/26/25 32/32/25 87/87/25 81/81/25
f 30/30/13 36/36/13 91/91/13 85/85/13
f 67/67/26 63/63/26 120/120/26 124/124/26
f 32/32/27 38/38/27 93/93/27 87/87/27
f 36/36/15 42/42/15 97/97/15 91/91/15
f 71/71/28 67/67/28 124/124/28 128/128/28
f 38/38/29 13/13/29 5/5/29 93/93/29
f 42/42/18 46/46/18 101/101/18 97/97/18
f 18/18/30 71/71/30 128/128/30 76/76/30
f 15/15/31 14/14/31 8/8/31 7/7/31
f 46/46/21 50/50/21 105/105/21 101/101/21
f 19/19/32 18/18/32 76/76/32 75/75/32
f 23/23/33 15/15/33 7/7/33 80/80/33
f 50/50/24 54/54/24 109/109/24 105/105/24
f 25/25/34 19/19/34 75/75/34 82/82/34
f 29/29/35 23/23/35 80/80/35 86/86/35
f 54/54/26 58/58/26 113/113/26 109/109/26
f 31/31/36 25/25/36 82/82/36 88/88/36
f 35/35/37 29/29/37 86/86/37 92/92/37
f 58/58/28 62/62/28 117/117/28 113/113/28
f 37/37/38 31/31/38 88/88/38 94/94/38
f 41/41/39 35/35/39 92/92/39 98/98/39
f 62/62/30 66/66/30 121/121/30 117/117/30
f 14/14/40 37/37/40 94/94/40 8/8/40
f 45/45/41 41/41/41 98/98/41 102/102/41
f 66/66/32 70/70/32 125/125/32 121/121/32
f 49/49/42 45/45/42 102/102/42 106/106/42
f 70/70/34 9/9/34 1/1/34 125/125/34
f 53/53/43 49/49/43 106/106/43 110/110/43
f 9/9/36 12/12/36 2/2/36 1/1/36
f 57/57/12 53/53/12 110/110/12 114/114/12
f 12/12/38 22/22/38 77/77/38 2/2/38
f 61/61/14 57/57/14 114/114/14 118/118/14
f 22/22/40 28/28/40 83/83/40 77/77/40
f 65/65/16 61/61/16 118/118/16 122/122/16
f 28/28/31 34/34/31 89/89/31 83/83/31
f 69/69/19 65/65/19 122/122/19 126/126/19
f 34/34/33 40/40/33 95/95/33 89/89/33
f 10/10/22 69/69/22 126/126/22 4/4/22
f 40/40/35 44/44/35 99/99/35 95/95/35
f 11/11/25 10/10/25 4/4/25 3/3/25
f 44/44/37 48/48/37 103/103/37 99/99/37
f 21/21/27 11/11/27 3/3/27 78/78/27
f 48/48/39 52/52/39 107/107/39 103/103/39
f 27/27/29 21/21/29 78/78/29 84/84/29
f 52/52/41 56/56/41 111/111/41 107/107/41
f 33/33/17 27/27/17 84/84/17 90/90/17
f 56/56/42 60/60/42 115/115/42 111/111/42
f 39/39/20 33/33/20 90/90/20 96/96/20
f 60/60/43 64/64/43 119/119/43 115/115/43
f 43/43/23 39/39/23 96/96/23 100/100/23
