<?xml version="1.0" encoding="iso-8859-1"?>
<!-- Generator: Adobe Illustrator 19.0.0, SVG Export Plug-In . SVG Version: 6.00 Build 0)  -->
<svg version="1.1" id="Capa_1" xmlns="http://www.w3.org/2000/svg" xmlns:xlink="http://www.w3.org/1999/xlink" x="0px" y="0px"
	 viewBox="0 0 512 512" style="enable-background:new 0 0 512 512;" xml:space="preserve">
<g>
	
		<rect x="203.152" y="228.084" transform="matrix(-0.5214 0.8533 -0.8533 -0.5214 646.975 110.2586)" style="fill:#454545;" width="178.83" height="16.959"/>
	<path style="fill:#454545;" d="M101.789,414.597c-56.194,0-101.754-45.56-101.754-101.754s45.56-101.754,101.754-101.754
		s101.754,45.56,101.754,101.754C203.484,369.011,157.957,414.537,101.789,414.597z M101.789,228.048
		c-46.832,0-84.795,37.963-84.795,84.795s37.963,84.795,84.795,84.795s84.795-37.963,84.795-84.795
		C186.533,266.036,148.596,228.099,101.789,228.048z"/>
	<path style="fill:#454545;" d="M407.051,414.597c-56.194,0-101.754-45.56-101.754-101.754s45.56-101.754,101.754-101.754
		s101.754,45.56,101.754,101.754C508.745,369.011,463.219,414.537,407.051,414.597z M407.051,228.048
		c-46.832,0-84.795,37.963-84.795,84.795s37.963,84.795,84.795,84.795s84.795-37.963,84.795-84.795
		C491.795,266.036,453.857,228.099,407.051,228.048z"/>
</g>
<g>
	<path style="fill:#919191;" d="M407.051,380.679V363.72c28.084-0.042,50.835-22.793,50.877-50.877
		c-0.025-16.51-8.039-31.993-21.504-41.549l9.828-13.83c17.943,12.745,28.61,33.375,28.635,55.38
		C474.844,350.288,444.496,380.628,407.051,380.679z"/>
	<path style="fill:#919191;" d="M425.409,265.358c-5.851-2.264-12.083-3.417-18.358-3.392v-16.959
		c8.386-0.008,16.696,1.543,24.506,4.579L425.409,265.358z"/>
	<path style="fill:#919191;" d="M102.044,380.679c-37.462,0.008-67.844-30.348-67.853-67.819
		c-0.008-17.985,7.131-35.232,19.834-47.952l11.99,11.99c-19.834,19.884-19.834,52.064,0,71.948
		c11.702,11.625,28.288,16.891,44.551,14.152l2.841,16.722C109.65,380.357,105.851,380.67,102.044,380.679z"/>
	<path style="fill:#919191;" d="M129.39,374.93l-6.784-15.526c5.749-2.527,10.964-6.114,15.399-10.557l11.948,11.99
		C144.034,366.772,137.064,371.546,129.39,374.93z"/>
</g>
<g>
	<rect x="262.866" y="151.733" style="fill:#454545;" width="76.315" height="16.959"/>
	<rect x="228.948" y="151.733" style="fill:#454545;" width="16.959" height="16.959"/>
</g>
<g>
	<path style="fill:#777777;" d="M245.94,321.322H93.31c-4.681,0-8.479-3.799-8.479-8.479c0-1.441,0.365-2.858,1.068-4.121
		l83.099-149.629l-24.099-54.845l15.534-6.834l23.878,54.32h27.711v16.959h-20.249l61.9,140.76
		c1.874,4.291-0.085,9.294-4.375,11.168C248.238,321.077,247.094,321.314,245.94,321.322z M107.725,304.363h125.217l-55.346-125.785
		L107.725,304.363z"/>
	<path style="fill:#777777;" d="M399.275,316.235L314.48,121.206c-1.874-4.291,0.085-9.294,4.384-11.167
		c1.068-0.466,2.23-0.712,3.392-0.704h80.555c16.391,0,29.678,13.287,29.678,29.678s-13.287,29.678-29.678,29.678l0,0h-29.678
		v-16.959h29.678c7.021,0,12.719-5.698,12.719-12.719s-5.698-12.719-12.719-12.719h-67.624l79.639,183.157L399.275,316.235z"/>
</g>
<rect x="127.194" y="92.376" style="fill:#454545;" width="67.836" height="16.959"/>
<path d="M101.789,414.597c52.861-0.085,96.878-40.6,101.321-93.274h42.83c2.866,0,5.537-1.45,7.097-3.85
	c0.051-0.068,0.068-0.153,0.11-0.22l0,0l85.66-140.081l20.045,46.111c-50.852,26.999-70.193,90.103-43.195,140.955
	s90.103,70.193,140.955,43.195s70.193-90.103,43.195-140.955c-23.938-45.094-77.002-66.216-125.378-49.902l-39.243-90.281h67.624
	c7.021,0,12.719,5.698,12.719,12.719s-5.698,12.719-12.719,12.719h-29.678v16.959h29.678c16.391,0,29.678-13.287,29.678-29.678
	s-13.287-29.678-29.678-29.678l0,0h-80.555c-4.681,0-8.479,3.79-8.479,8.479c0,1.17,0.237,2.323,0.704,3.392l13.279,30.526h-64.86
	v16.959h61.196L247.17,294.57l-55.397-125.878h20.249v-16.959h-27.711l-18.655-42.397h29.407V92.376h-67.836v16.959h19.901
	l21.894,49.758l-32.375,58.28c-52.751-19.282-111.158,7.852-130.44,60.603s7.852,111.158,60.611,130.44
	C78.021,412.511,89.859,414.605,101.789,414.597z M399.275,316.235l15.551-6.784l-33.63-77.35
	c44.755-14.441,92.74,10.141,107.181,54.896c14.441,44.755-10.141,92.74-54.896,107.181c-44.755,14.441-92.74-10.141-107.181-54.896
	c-12.439-38.565,4.028-80.564,39.362-100.397L399.275,316.235z M177.596,178.579l55.346,125.785h-29.831
	c-2.815-33.401-21.903-63.265-51.021-79.86L177.596,178.579z M143.856,239.317c23.768,13.593,39.514,37.81,42.296,65.046h-78.427
	L143.856,239.317z M101.789,228.048c9.014,0.008,17.977,1.467,26.532,4.308l-42.397,76.366c-2.272,4.096-0.806,9.26,3.29,11.532
	c1.255,0.695,2.663,1.068,4.096,1.068h92.842c-4.681,46.595-46.256,80.572-92.85,75.891s-80.572-46.256-75.891-92.85
	C21.768,261.033,58.238,228.04,101.789,228.048z"/>
<path d="M474.887,312.843c-0.042-21.996-10.71-42.609-28.635-55.346l-9.828,13.796c13.465,9.556,21.479,25.04,21.504,41.549
	c-0.042,28.084-22.793,50.835-50.877,50.877v16.959C444.496,380.628,474.844,350.288,474.887,312.843z"/>
<path d="M431.556,249.586c-7.81-3.036-16.12-4.587-24.506-4.579v16.959c6.275-0.025,12.507,1.128,18.358,3.392L431.556,249.586z"/>
<path d="M102.044,380.679c3.807,0,7.606-0.322,11.363-0.958l-2.841-16.722c-16.264,2.739-32.85-2.527-44.551-14.152
	c-19.834-19.884-19.834-52.064,0-71.948l-11.99-11.99c-26.473,26.507-26.448,69.464,0.068,95.937
	C66.811,373.548,84.059,380.679,102.044,380.679z"/>
<path d="M149.953,360.837l-11.99-11.99c-4.435,4.443-9.65,8.03-15.399,10.557l6.784,15.526
	C137.03,371.555,144.017,366.772,149.953,360.837z"/>
<rect x="228.948" y="151.733" width="16.959" height="16.959"/>
<g>
</g>
<g>
</g>
<g>
</g>
<g>
</g>
<g>
</g>
<g>
</g>
<g>
</g>
<g>
</g>
<g>
</g>
<g>
</g>
<g>
</g>
<g>
</g>
<g>
</g>
<g>
</g>
<g>
</g>
</svg>
