<?xml version="1.0" encoding="utf-8"?>
<!-- Generator: Adobe Illustrator 22.0.1, SVG Export Plug-In . SVG Version: 6.00 Build 0)  -->
<svg version="1.1" id="Calque_1" xmlns="http://www.w3.org/2000/svg" xmlns:xlink="http://www.w3.org/1999/xlink" x="0px" y="0px"
	 viewBox="0 0 93.5 496.1" style="enable-background:new 0 0 93.5 496.1;" xml:space="preserve">
<style type="text/css">
	.st0{fill:#50504F;}
	.st1{fill:#3B3A3A;}
	.st2{fill:#F4F8FD;}
	.st3{fill:#DCE8F7;}
	.st4{fill:none;stroke:#BAD3F0;}
	.st5{opacity:0.5;fill:#3262AC;}
	.st6{fill:#717171;}
	.st7{opacity:0.2;fill:#020203;}
</style>
<rect x="1.6" y="492.3" class="st0" width="26.1" height="2"/>
<rect x="3.6" y="494.2" class="st1" width="5.3" height="2.3"/>
<rect x="12" y="494.2" class="st1" width="5.3" height="2.3"/>
<rect x="20.4" y="494.2" class="st1" width="5.3" height="2.3"/>
<rect x="32.6" y="492.1" class="st0" width="26.1" height="2"/>
<rect x="34.6" y="494.1" class="st1" width="5.3" height="2.3"/>
<rect x="43" y="494.1" class="st1" width="5.3" height="2.3"/>
<rect x="51.5" y="494.1" class="st1" width="5.3" height="2.3"/>
<rect x="66.1" y="492.3" class="st0" width="26.1" height="2"/>
<rect x="68.1" y="494.2" class="st1" width="5.3" height="2.3"/>
<rect x="76.5" y="494.2" class="st1" width="5.3" height="2.3"/>
<rect x="84.9" y="494.2" class="st1" width="5.3" height="2.3"/>
<rect x="28.3" y="430.3" class="st0" width="37.6" height="3"/>
<path class="st2" d="M92.8,189.4c0,0-2.9-24.6-13.9-27.3S65,189.4,65,189.4l0.5,302.9h27.3V189.4z"/>
<path class="st2" d="M28.3,189.4c0,0-2.9-24.6-13.9-27.3S0.5,189.4,0.5,189.4L1,492.3h27.3V189.4z"/>
<rect x="28.3" y="189.9" class="st3" width="36.8" height="4.1"/>
<path class="st2" d="M46,1C46,1,46,1,46,1C46,1,46,1,46,1C46,1,46,1,46,1C46,1,46,1,46,1C32.9,2.7,26.5,32.8,26.5,32.8v59l5.8,9.5
	v391H46h0h13.7v-391l5.8-9.5v-59C65.5,32.8,59.1,2.7,46,1z"/>
<polygon class="st3" points="26.5,91.8 65.5,91.8 59.8,101.3 32.3,101.3 "/>
<line class="st4" x1="59.8" y1="138" x2="32.3" y2="138"/>
<line class="st4" x1="65" y1="189.4" x2="92.8" y2="189.4"/>
<line class="st4" x1="0.5" y1="189.4" x2="28.3" y2="189.4"/>
<line class="st4" x1="0.6" y1="262.7" x2="28.3" y2="262.7"/>
<line class="st4" x1="32.3" y1="262.7" x2="59.8" y2="262.7"/>
<line class="st4" x1="65.1" y1="262.7" x2="92.7" y2="262.7"/>
<line class="st4" x1="32.3" y1="189.4" x2="59.8" y2="189.4"/>
<path class="st5" d="M46,1C46,1,46,1,46,1C46,1,46,1,46,1C46,1,46,1,46,1C46,1,46,1,46,1c-0.1,0-0.2,0-0.3,0.1
	C48.4,1.5,59.2,15,59.8,28.6c0,3.2,0,63.2,0,63.2l-5.1,9.5l-0.1,319.6l0,71.4h5.2v-391l5.8-9.5v-59C65.5,32.8,59.1,2.7,46,1z"/>
<path class="st5" d="M78.9,162.2c-0.2-0.1-0.5-0.1-0.7-0.1c10,7.3,9.5,27.4,9.5,27.4v302.9h5.1V189.4
	C92.8,189.4,89.9,164.8,78.9,162.2z"/>
<path class="st5" d="M14.4,162.1c-0.2-0.1-0.5-0.1-0.7-0.1c10,7.3,9.5,27.4,9.5,27.4v302.9h5.1V189.4
	C28.3,189.4,25.4,164.7,14.4,162.1z"/>
<path class="st6" d="M25.2,413.2c-2.2,0.1-2.4,11.1-2.4,11.1s-5.5,52.1-8.1,53.4c0,0-0.1,0-0.1,0c0,0-0.1,0-0.1,0
	c-2.6-1.3-8.1-53.4-8.1-53.4s-0.1-11-2.4-11.1s-3,6-3,6v73.1h13.6h13.6v-73.1C28.3,419.2,27.5,413,25.2,413.2z"/>
<path class="st6" d="M56.7,413.2c-2.2,0.1-2.4,11.1-2.4,11.1s-5.6,52.1-8.2,53.4c0,0-0.1,0-0.1,0c0,0-0.1,0-0.1,0
	c-2.6-1.3-8.2-53.4-8.2-53.4s-0.1-11-2.4-11.1s-3,6-3,6v73.1H46h13.7v-73.1C59.8,419.2,59,413,56.7,413.2z"/>
<path class="st6" d="M89.7,413.2c-2.2,0.1-2.4,11.1-2.4,11.1s-5.5,52.1-8.1,53.4c0,0-0.1,0-0.1,0c0,0-0.1,0-0.1,0
	c-2.6-1.3-8.1-53.4-8.1-53.4s-0.1-11-2.4-11.1s-3,6-3,6v73.1h13.6h13.6v-73.1C92.8,419.2,92,413,89.7,413.2z"/>
<path class="st7" d="M25.2,413.2c-1.2,0.1-1.8,3.2-2.1,6.1v73h5.1v-73.1C28.3,419.2,27.5,413,25.2,413.2z"/>
<path class="st7" d="M56.7,413.2c-1.2,0.1-1.8,3.2-2.1,6.1v73h5.1v-73.1C59.8,419.2,59,413,56.7,413.2z"/>
<path class="st7" d="M89.7,413.2c-1.2,0.1-1.8,3.2-2.1,6.1v73h5.1v-73.1C92.7,419.2,91.9,413,89.7,413.2z"/>
</svg>
