<?xml version="1.0" encoding="utf-8"?>
<!-- Generator: Adobe Illustrator 22.0.1, SVG Export Plug-In . SVG Version: 6.00 Build 0)  -->
<svg version="1.1" id="Calque_1" xmlns="http://www.w3.org/2000/svg" xmlns:xlink="http://www.w3.org/1999/xlink" x="0px" y="0px"
	 viewBox="0 0 23 23" style="enable-background:new 0 0 23 23;" xml:space="preserve">
<style type="text/css">
	.st0{fill:#5B668B;}
</style>
<path class="st0" d="M22.5,11.4C22.5,11.4,22.5,11.4,22.5,11.4L22.5,11.4c0-0.7-0.9-1.4-1.7-1.6c-4-1-6.3-3.5-7.2-7.6
	c-0.2-0.8-0.5-1.6-2.1-1.8l0,0c-0.7,0-1.4,0.7-1.6,1.6c-1,4.2-3.5,6.6-7.6,7.5C1.5,9.7,0.7,10,0.5,11.6c0,0.7,0.9,1.4,1.7,1.6
	c4,1,6.3,3.5,7.2,7.6c0.2,0.8,0.5,1.8,2.1,2l0,0c0.7,0,1.4-0.9,1.6-1.8c1-4.2,3.5-6.6,7.6-7.5C21.5,13.3,22.3,13,22.5,11.4
	L22.5,11.4C22.5,11.4,22.5,11.4,22.5,11.4z"/>
</svg>
