<?xml version="1.0" encoding="utf-8"?>
<!-- Generator: Adobe Illustrator 28.4.1, SVG Export Plug-In . SVG Version: 6.00 Build 0)  -->
<svg version="1.1" xmlns="http://www.w3.org/2000/svg" xmlns:xlink="http://www.w3.org/1999/xlink" x="0px" y="0px"
	 viewBox="0 0 100 100" style="enable-background:new 0 0 100 100;" xml:space="preserve">
<style type="text/css">
	.st0{display:none;}
	.st1{display:inline;}
	.st2{fill:#FFFFFF;}
</style>
<g id="Layer_1" class="st0">
	<polygon class="st1" points="50,3.71 61.49,39.07 98.67,39.07 68.59,60.93 80.08,96.29 50,74.43 19.92,96.29 31.41,60.93 
		1.33,39.07 38.51,39.07 	"/>
</g>
<g id="Layer_2">
	<g>
		<path class="st2" d="M19.72,46.43c4.6-3.04,8.66-5.68,12.66-8.4c0.97-0.66,1.41-0.13,2.09,0.39c2.53,1.96,4.34,4.63,6.72,6.74
			c1.46,1.29,2.96,2.55,4.38,3.89c1.2,1.14,2.41,1.46,3.65,0.19c1.24-1.28,0.86-2.51-0.29-3.66c-3.68-3.65-7.36-7.31-11.16-11.09
			c4.23-2.84,8.33-5.54,12.37-8.34c0.97-0.67,1.4-0.16,2.08,0.36c2.21,1.7,3.8,4.01,5.85,5.86c1.63,1.48,3.3,2.92,4.9,4.42
			c1.14,1.07,2.32,1.3,3.48,0.17c1.25-1.22,1.05-2.51-0.15-3.66c-3.56-3.42-7.14-6.82-11.08-10.58
			c7.45-4.06,12.99-10.14,21.05-11.95c6.61-1.49,14.66,1.74,18.64,7.31c3,4.2,5.18,8.64,4.44,13.91
			c-0.95,6.74-4.44,11.95-10.12,15.73C70.07,60.47,50.97,73.29,31.81,86C18.5,94.83,1.5,86.45,0.54,70.47
			C0.14,63.7,3.2,58.2,8.56,54.07c1.95-1.5,4.1-2.74,6.11-4.17c0.8-0.57,1.15-0.45,1.91,0.23c3.94,3.53,7.18,7.78,11.4,11.03
			c1.4,1.08,2.64,1.82,4.04,0.3c1.35-1.47,0.49-2.71-0.67-3.82C27.56,53.98,23.76,50.33,19.72,46.43z"/>
	</g>
</g>
</svg>
