<?xml version="1.0" encoding="utf-8"?>
<!-- Generator: Adobe Illustrator 28.4.1, SVG Export Plug-In . SVG Version: 6.00 Build 0)  -->
<svg version="1.1" id="Layer_1" xmlns="http://www.w3.org/2000/svg" xmlns:xlink="http://www.w3.org/1999/xlink" x="0px" y="0px"
	 viewBox="0 0 329.63 314.87" style="enable-background:new 0 0 329.63 314.87;" xml:space="preserve">
<style type="text/css">
	.st0{fill:#FFFFFF;}
</style>
<path class="st0" d="M205.75,139.03c2.07-2.94,4.6-5.43,7.51-7.53C211.2,134.45,208.78,137.05,205.75,139.03z"/>
<path class="st0" d="M245.47,88.25c-0.63,0.02-1.25,0.04-1.88,0.06C244.2,87.95,244.83,88.03,245.47,88.25z"/>
<path class="st0" d="M225.49,90.2c-1.25-21.33-12.23-41.29-26.99-56.39c-10.35-9.94-21.61-21.47-33.78-28.16
	c-23.35,17.4-47.78,37.83-56.33,66.76c-0.44,1.68-2.84,5.41-0.49,6.19c31.19,5.75,46.23,33.35,55.22,58.64
	c14.1,3.89,18.65-10.3,20.14-22.22c0.57-4.28,6.95-1.31,9.99-2.14c6.98,5.33-3.7,22.24-7.61,29.52c-0.2,2.32,4.08,3.17,5.34,5.37
	c4.37-0.5,10.56-5.68,14.77-8.74C220.02,127.23,227.44,108.48,225.49,90.2z M196.06,98.14c0,1.65-1.35,3-3,3h-6.89
	c-1.65,0-3-1.35-3-3v-6.89c0-1.65,1.35-3,3-3h6.89c1.65,0,3,1.35,3,3V98.14z"/>
<path class="st0" d="M189.07,170.13c-0.2-3.38-1.58-6.68-3.44-9.47h0c-3.6-6.05-10.46-10.58-17.53-11.02c0,0,0,0,0,0
	c-1.91-0.54-3.84-0.47-5.72,0c0,0,0,0,0,0c-12.87,0.88-23.22,14.09-21.03,26.76c0,0,0,0,0,0c0.12,3.43,1.43,6.97,3.37,9.79
	c0.45,1.12,1.21,2.02,2.05,2.87h0C160.97,207.74,193.56,193.34,189.07,170.13z M171.67,177.13c0,1.65-1.35,3-3,3h-6.89
	c-1.65,0-3-1.35-3-3v-6.89c0-1.65,1.35-3,3-3h6.89c1.65,0,3,1.35,3,3V177.13z"/>
<path class="st0" d="M5.9,121c6.67,27.64,21.43,58.11,45.64,75.4v0c7.15,8.76,13.82-13.14,22.18-16.28
	c15.65-12.88,34.52-16.72,54.41-13.98c11.3-11.23,0.3-21.22-11.4-27.05c-6.09-1.27-1.2-6.79-0.51-10.82
	c6.79-5.22,19.67,9.78,24.89,15.48c1.26,2.57,8.41-2.36,8.07-4.21C135.61,65.85,49,83.98,5.9,121z M104.99,124.74l-1.9,6.62
	c-0.45,1.59-2.12,2.51-3.71,2.06l-6.62-1.9c-1.59-0.45-2.51-2.12-2.06-3.71l1.9-6.62c0.45-1.59,2.12-2.51,3.71-2.06l6.62,1.9
	C104.51,121.48,105.44,123.15,104.99,124.74z"/>
<path class="st0" d="M285.68,97.72L285.68,97.72c-13.01-6.19-27.62-9.87-42.08-9.43c-12.64-3.83,3.29,46.03-40.53,67.17
	c-1.45,1.33-5.45,2.13-4.08,4.64c2.53,3.96,0.27,11.3,6.23,11.55c6.89,1.94,14.49,2.92,21.55,0.74c2.65-1.03,2.23,2.33,3.22,3.8
	c8.66,17.32-23.68,5.7-30.04,8.07c-7.76,14.71,28.09,26.81,40.26,25.58l0,0c45.04-0.46,78.33-50.79,83.35-89.41
	C311.7,111.8,299,103.92,285.68,97.72z M252.85,177.25l-6.59,2.01c-1.58,0.48-3.26-0.42-3.74-2l-2.01-6.59
	c-0.48-1.58,0.42-3.26,2-3.74l6.59-2.01c1.58-0.48,3.26,0.42,3.74,2l2.01,6.59C255.33,175.09,254.43,176.77,252.85,177.25z"/>
<path class="st0" d="M275.08,246.03C275.08,246.03,275.08,246.03,275.08,246.03c-0.12-1.64,0.26-3.31-0.37-4.9c0,0,0,0,0,0
	c-0.44-6.5-1.91-13.04-4.08-19.2c-1.04-1.76-0.79-6.55-3.81-5.15c-59.02,22.73-70.47-30.69-87.6-8.44
	c0.04,8.67,1.56,17.53,6.85,24.65c-2.68,1.72-8,8.6-10.83,6c-6.77-8.17-6.38-20.76-9.16-29.11c-8.29-1.7-8.36,2.08-11.22,8.79
	c-17.16,40.73,22.11,79.84,60.32,86.36c7.87,1.14,48.68,9.71,50.1,1.03C270.88,286.61,276.62,266.39,275.08,246.03z M198.9,254.47
	l-5.23,4.48c-1.25,1.07-3.16,0.93-4.23-0.33l-4.48-5.23c-1.07-1.25-0.93-3.16,0.33-4.23l5.23-4.48c1.25-1.07,3.16-0.93,4.23,0.33
	l4.48,5.23C200.3,251.49,200.16,253.4,198.9,254.47z"/>
<path class="st0" d="M155.78,283.91c-18.71-21.38-22.1-52.55-8.94-77.63c-0.98-3.39-7.15-6.11-9.63-8.84
	c-9.38,1.43-16.65,10.24-23.4,13.69c-18.57-8.27,6.01-19.88,15.96-23.96c2.93-1.29-0.91-5.74-0.58-8.32
	c-5.64-0.81-12.62-2.02-18.68-1.18c0,0,0,0,0,0c-56.6,6.63-63.8,77.03-47.56,120.52c1.88,14.66,6.98,11.56,19.34,10.93
	c24.15-0.97,49.5-5.16,69.36-20.17C152.81,287.37,157.51,286.2,155.78,283.91z M106.59,224.14l-3.92,5.67
	c-0.94,1.36-2.82,1.7-4.17,0.76l-5.67-3.92c-1.36-0.94-1.7-2.82-0.76-4.17l3.92-5.67c0.94-1.36,2.82-1.7,4.17-0.76l5.67,3.92
	C107.19,220.91,107.53,222.79,106.59,224.14z"/>
</svg>
