<svg height="231.42204mm" viewBox="0 0 231.42204 231.42204" width="231.42204mm" xmlns="http://www.w3.org/2000/svg"><path d="m-1571.6191-586.7168v874.66602h874.66598v-874.66602zm97.6992 99.9043h677.38474v127.20898a29.19813 29.198364 0 0 0 -24.46679-13.3125 29.19813 29.198364 0 0 0 -23.55078 11.99219v-88.99609c0-7.91426-6.37091-14.28516-14.28516-14.28516h-17.67969c-7.91429 0-14.28515 6.3709-14.28515 14.28516v223.09375c0 7.9143 6.37086 14.28515 14.28515 14.28515h17.67969c7.91425 0 14.28516-6.37085 14.28516-14.28515v-99.69141a29.19813 29.198364 0 0 0 23.55078 12 29.19813 29.198364 0 0 0 24.46679-13.27734v518.36523h-677.38474zm447.4023 18.56641c-7.9143 0-14.2851 6.37285-14.2851 14.28711v12.99609h-74.5801c-7.9143 0-14.2852 6.3709-14.2852 14.28516v17.67968c0 7.9143 6.3709 14.28516 14.2852 14.28516h57.7012a90.156106 90.156849 0 0 0 -51.9707 81.55273 90.156106 90.156849 0 0 0 90.1562 90.15625 90.156106 90.156849 0 0 0 90.15626-90.15625 90.156106 90.156849 0 0 0 -51.95508-81.55273h59.53515c7.9143 0 14.28516-6.37086 14.28516-14.28516v-17.67968c0-7.91426-6.37086-14.28516-14.28516-14.28516h-72.79296v-12.99609c0-7.91426-6.37087-14.28711-14.28517-14.28711zm-253.5996.98047c-7.9143 0-14.2851 6.3709-14.2851 14.28515v293.26563c0 7.91429 6.3708 14.28711 14.2851 14.28711h17.6797c7.9143 0 14.2852-6.37282 14.2852-14.28711v-132.31836a29.19813 29.198364 0 0 0 23.0898 11.35547 29.19813 29.198364 0 0 0 24.2324-12.9336v133.89649c0 7.9143 6.3709 14.28711 14.2852 14.28711h17.6777c7.9143 0 14.2871-6.37281 14.2871-14.28711v-293.26563c0-7.91425-6.3728-14.28516-14.2871-14.28515h-17.6777c-7.9143 0-14.2852 6.3709-14.2852 14.28515v126.85742a29.19813 29.198364 0 0 0 -24.2324-12.95117 29.19813 29.198364 0 0 0 -23.0898 11.38477v-125.29102c0-7.91425-6.3709-14.28516-14.2852-14.28515zm-164.2207 12.44921c-7.9142 0-14.2851 6.3709-14.2851 14.28516v17.67969c0 7.91429 6.3709 14.28515 14.2851 14.28515h6.5332v220.00391c0 .0389-.001.0764 0 .11523v14.37305c0 7.91426 6.3728 14.28516 14.2871 14.28516h108.0371c7.9142 0 14.2851-6.3709 14.2851-14.28516v-17.67969c0-7.91429-6.3709-14.28515-14.2851-14.28515h-76.082v-202.52735h75.8457c7.9142 0 14.2871-6.37086 14.2871-14.28515v-17.67969c0-7.91426-6.3729-14.28516-14.2871-14.28516zm424.8418 98.82032a42.835075 42.835421 0 0 1 42.83399 42.83593 42.835075 42.835421 0 0 1 -42.83399 42.83594 42.835075 42.835421 0 0 1 -42.8359-42.83594 42.835075 42.835421 0 0 1 42.8359-42.83593zm-90.5293 122.22656c-7.9142 0-14.2793 6.37087-14.2793 14.28515v42.32422c0 .0389-.001.0764 0 .11524v14.37304c0 7.91426 6.3728 14.28516 14.2871 14.28516h270.53708c7.91422 0 14.28516-6.3709 14.28516-14.28516v-17.67968c0-7.91429-6.37094-14.28516-14.28516-14.28516h-238.58198v-24.84766c0-7.91428-6.3709-14.28515-14.2852-14.28515zm-76.5195 95.78906c-7.9143 0-14.2852 6.3709-14.2852 14.28516v204.878904c0 7.9143 6.3709 14.285156 14.2852 14.285156h17.6777c7.9143 0 14.2871-6.370856 14.2871-14.285156v-204.878904c0-7.91426-6.3728-14.28516-14.2871-14.28516zm-233.9219 9.07617c-8.5911 0-15.5078 7.34157-15.5078 16.46094v162.386719c0 9.119368 6.9167 16.460938 15.5078 16.460938h152.9805c8.5911 0 15.5078-7.34157 15.5078-16.460938v-162.386719c0-9.11937-6.9167-16.46094-15.5078-16.46094zm304.623 1.70118c-7.9141 0-14.2851 6.3709-14.2851 14.28515v17.679689c0 7.914289 6.371 14.285156 14.2851 14.285156h238.80864v32.783203c0 7.914297 6.37087 14.285156 14.28516 14.285156h17.67969c7.91425 0 14.28125-6.370859 14.28125-14.285156v-50.259766c0-.03889.00098-.07638 0-.115234l-.002-14.373048c-.001-7.91425-6.37286-14.28516-14.2871-14.28515zm-276.7929 43.324214h97.3183v105.257812h-97.3183zm271.539 55.058594c-7.9142 0-14.2851 6.372854-14.2851 14.287109v17.6777342c0 7.9142928 6.3709 14.2851568 14.2851 14.2851568h129.28911a29.19813 29.198364 0 0 0 -11.17581 22.964843 29.19813 29.198364 0 0 0 8.22463 20.310547h-121.08403c-7.914 0-14.2851 6.370901-14.2851 14.285156v17.679688c0 7.914288 6.3711 14.285158 14.2851 14.285158h238.80864v49.40039c0 7.9143 6.37087 14.28515 14.28516 14.28515h17.67969c7.91425 0 14.28125-6.37085 14.28125-14.28515v-66.876954c0-.03891.001-.0764 0-.115235l-.002-14.373047c-.001-7.914255-6.37287-14.285156-14.2871-14.285156h-107.7754a29.19813 29.198364 0 0 0 8.26368-20.310547 29.19813 29.198364 0 0 0 -11.21875-22.964843h126.90625c7.91429 0 14.28515-6.370864 14.28515-14.2851568v-17.6777342c0-7.914255-6.37086-14.287109-14.28515-14.287109zm-300.0957 103.396484c-7.9142 0-14.2812 6.370859-14.2812 14.285156v47.626952c0 .0389-.001.0764 0 .11524v14.37304c0 7.91426 6.3729 14.28516 14.2872 14.28516h258.0371c7.9142 0 14.2851-6.3709 14.2851-14.28516v-17.67968c0-7.91429-6.3709-14.28516-14.2851-14.28516h-226.0801v-30.150392c0-7.914297-6.3709-14.285156-14.2852-14.285156z" fill="#fff" transform="matrix(.26458333 0 0 .26458333 415.82421 155.23548)"/><script xmlns=""/></svg>