# Blender v2.79 (sub 0) OBJ File: ''
# www.blender.org
mtllib text.mtl
o Text
v 8.333502 0.000000 2.908405
v 8.166502 0.000000 3.071405
v 8.166502 0.000000 3.081405
v 8.244502 0.000000 3.081405
v 8.244502 0.000000 3.318405
v 8.245522 0.000000 3.338195
v 8.248581 0.000000 3.356974
v 8.253674 0.000000 3.374608
v 8.260798 0.000000 3.390960
v 8.269951 0.000000 3.405896
v 8.281127 0.000000 3.419280
v 8.294324 0.000000 3.430976
v 8.309539 0.000000 3.440849
v 8.326767 0.000000 3.448764
v 8.346006 0.000000 3.454586
v 8.367252 0.000000 3.458178
v 8.390502 0.000000 3.459405
v 8.398127 0.000000 3.459139
v 8.406419 0.000000 3.458363
v 8.415252 0.000000 3.457108
v 8.424501 0.000000 3.455405
v 8.434044 0.000000 3.453285
v 8.443752 0.000000 3.450780
v 8.453502 0.000000 3.447921
v 8.463168 0.000000 3.444738
v 8.472627 0.000000 3.441264
v 8.481751 0.000000 3.437530
v 8.490418 0.000000 3.433566
v 8.498502 0.000000 3.429405
v 8.498502 0.000000 3.346405
v 8.489563 0.000000 3.351676
v 8.480742 0.000000 3.356488
v 8.472033 0.000000 3.360842
v 8.463428 0.000000 3.364738
v 8.454920 0.000000 3.368176
v 8.446502 0.000000 3.371155
v 8.438168 0.000000 3.373676
v 8.429909 0.000000 3.375738
v 8.421721 0.000000 3.377342
v 8.413594 0.000000 3.378488
v 8.405523 0.000000 3.379176
v 8.397502 0.000000 3.379405
v 8.390781 0.000000 3.379079
v 8.383734 0.000000 3.378048
v 8.376534 0.000000 3.376233
v 8.369354 0.000000 3.373553
v 8.362369 0.000000 3.369929
v 8.355752 0.000000 3.365280
v 8.349677 0.000000 3.359527
v 8.344316 0.000000 3.352590
v 8.339846 0.000000 3.344389
v 8.336437 0.000000 3.334845
v 8.334265 0.000000 3.323876
v 8.333502 0.000000 3.311405
v 8.333502 0.000000 3.081405
v 8.475502 0.000000 3.081405
v 8.475502 0.000000 3.001405
v 8.333502 0.000000 3.001405
v 8.153502 0.000000 3.001405
v 8.039502 0.000000 3.001405
v 7.911502 0.000000 3.155405
v 7.778502 0.000000 3.001405
v 7.666502 0.000000 3.001405
v 7.855502 0.000000 3.222405
v 7.666502 0.000000 3.450405
v 7.778502 0.000000 3.450405
v 7.911502 0.000000 3.289405
v 8.052502 0.000000 3.450405
v 8.166502 0.000000 3.450405
v 7.968502 0.000000 3.222405
v 7.625502 0.000000 3.320405
v 7.612520 0.000000 3.328610
v 7.599566 0.000000 3.336210
v 7.586627 0.000000 3.343186
v 7.573687 0.000000 3.349516
v 7.560733 0.000000 3.355179
v 7.547752 0.000000 3.360155
v 7.534729 0.000000 3.364422
v 7.521650 0.000000 3.367960
v 7.508502 0.000000 3.370749
v 7.495270 0.000000 3.372766
v 7.481942 0.000000 3.373992
v 7.468502 0.000000 3.374405
v 7.447732 0.000000 3.373448
v 7.428428 0.000000 3.370585
v 7.410596 0.000000 3.365827
v 7.394243 0.000000 3.359183
v 7.379376 0.000000 3.350664
v 7.366002 0.000000 3.340280
v 7.354128 0.000000 3.328042
v 7.343761 0.000000 3.313961
v 7.334908 0.000000 3.298045
v 7.327576 0.000000 3.280308
v 7.321772 0.000000 3.260757
v 7.317502 0.000000 3.239405
v 7.633502 0.000000 3.239405
v 7.631938 0.000000 3.199673
v 7.627321 0.000000 3.163470
v 7.619767 0.000000 3.130780
v 7.609391 0.000000 3.101590
v 7.596306 0.000000 3.075886
v 7.580627 0.000000 3.053655
v 7.562469 0.000000 3.034882
v 7.541946 0.000000 3.019553
v 7.519174 0.000000 3.007655
v 7.494266 0.000000 2.999173
v 7.467337 0.000000 2.994095
v 7.438502 0.000000 2.992405
v 7.408321 0.000000 2.994294
v 7.379891 0.000000 2.999849
v 7.353377 0.000000 3.008905
v 7.328946 0.000000 3.021294
v 7.306766 0.000000 3.036849
v 7.287002 0.000000 3.055405
v 7.269821 0.000000 3.076794
v 7.255391 0.000000 3.100849
v 7.243877 0.000000 3.127405
v 7.235446 0.000000 3.156294
v 7.230266 0.000000 3.187349
v 7.228502 0.000000 3.220405
v 7.230118 0.000000 3.251156
v 7.234928 0.000000 3.281164
v 7.242877 0.000000 3.310061
v 7.253909 0.000000 3.337479
v 7.267970 0.000000 3.363050
v 7.285002 0.000000 3.386405
v 7.304951 0.000000 3.407177
v 7.327761 0.000000 3.424998
v 7.353377 0.000000 3.439499
v 7.381742 0.000000 3.450312
v 7.412803 0.000000 3.457070
v 7.446502 0.000000 3.459405
v 7.464958 0.000000 3.459049
v 7.482400 0.000000 3.457979
v 7.498940 0.000000 3.456186
v 7.514687 0.000000 3.453664
v 7.529754 0.000000 3.450406
v 7.544252 0.000000 3.446405
v 7.558291 0.000000 3.441654
v 7.571983 0.000000 3.436146
v 7.585439 0.000000 3.429874
v 7.598770 0.000000 3.422831
v 7.612087 0.000000 3.415010
v 7.625502 0.000000 3.406405
v 7.319502 0.000000 3.180405
v 7.323105 0.000000 3.163306
v 7.327909 0.000000 3.147530
v 7.333908 0.000000 3.133108
v 7.341094 0.000000 3.120071
v 7.349462 0.000000 3.108452
v 7.359002 0.000000 3.098280
v 7.369709 0.000000 3.089587
v 7.381576 0.000000 3.082405
v 7.394596 0.000000 3.076764
v 7.408761 0.000000 3.072696
v 7.424066 0.000000 3.070233
v 7.440502 0.000000 3.069405
v 7.455745 0.000000 3.070290
v 7.469946 0.000000 3.072905
v 7.483064 0.000000 3.077186
v 7.495058 0.000000 3.083071
v 7.505884 0.000000 3.090499
v 7.515502 0.000000 3.099405
v 7.523870 0.000000 3.109728
v 7.530946 0.000000 3.121405
v 7.536689 0.000000 3.134374
v 7.541058 0.000000 3.148571
v 7.544009 0.000000 3.163936
v 7.545502 0.000000 3.180405
v 7.170502 0.000000 2.768405
v 6.600502 0.000000 2.768405
v 6.600502 0.000000 2.856405
v 6.836502 0.000000 2.856405
v 6.836502 0.000000 3.450405
v 6.934502 0.000000 3.450405
v 6.934502 0.000000 2.856405
v 7.170502 0.000000 2.856405
vn 0.0000 1.0000 0.0000
vn 0.0000 0.0000 1.0000
g Text_Text_None
usemtl None
s off
f 2//1 58//1 1//1
f 2//1 57//1 58//1
f 2//1 56//1 57//1
f 3//1 56//1 2//1
f 4//2 56//2 3//2
f 5//1 55//1 4//1
f 55//2 56//2 4//2
f 5//1 54//1 55//1
f 5//1 53//1 54//1
f 6//1 53//1 5//1
f 6//1 52//1 53//1
f 6//1 51//1 52//1
f 7//1 51//1 6//1
f 7//1 50//1 51//1
f 31//1 29//1 30//1
f 32//1 29//1 31//1
f 7//1 49//1 50//1
f 33//1 29//1 32//1
f 8//1 49//1 7//1
f 8//1 48//1 49//1
f 34//1 29//1 33//1
f 35//1 29//1 34//1
f 8//1 47//1 48//1
f 36//1 29//1 35//1
f 8//1 46//1 47//1
f 37//1 29//1 36//1
f 8//1 45//1 46//1
f 38//1 29//1 37//1
f 9//1 45//1 8//1
f 39//1 29//1 38//1
f 9//1 44//1 45//1
f 40//1 29//1 39//1
f 9//1 43//1 44//1
f 41//1 29//1 40//1
f 9//1 42//1 43//1
f 42//1 29//1 41//1
f 9//1 29//1 42//1
f 10//1 29//1 9//1
f 11//1 29//1 10//1
f 12//1 29//1 11//1
f 12//1 28//1 29//1
f 13//1 28//1 12//1
f 13//1 27//1 28//1
f 13//1 26//1 27//1
f 14//1 26//1 13//1
f 14//1 25//1 26//1
f 14//1 24//1 25//1
f 14//1 23//1 24//1
f 15//1 23//1 14//1
f 15//1 22//1 23//1
f 15//1 21//1 22//1
f 16//1 21//1 15//1
f 16//1 20//1 21//1
f 16//1 19//1 20//1
f 17//1 19//1 16//1
f 17//1 18//1 19//1
f 64//1 62//1 63//1
f 64//1 61//1 62//1
f 61//1 59//1 60//1
f 61//1 70//1 59//1
f 64//1 70//1 61//1
f 65//1 70//1 64//1
f 65//1 67//1 70//1
f 67//1 69//1 70//1
f 65//1 66//1 67//1
f 68//1 69//1 67//1
f 109//1 107//1 108//1
f 109//1 106//1 107//1
f 110//1 106//1 109//1
f 110//1 105//1 106//1
f 111//1 105//1 110//1
f 111//1 104//1 105//1
f 112//1 104//1 111//1
f 112//1 103//1 104//1
f 113//1 103//1 112//1
f 113//1 102//1 103//1
f 114//1 102//1 113//1
f 114//1 101//1 102//1
f 115//1 157//1 114//1
f 157//1 101//1 114//1
f 115//1 156//1 157//1
f 158//1 101//1 157//1
f 115//1 155//1 156//1
f 159//1 101//1 158//1
f 115//1 154//1 155//1
f 160//1 101//1 159//1
f 160//1 100//1 101//1
f 115//1 153//1 154//1
f 116//1 153//1 115//1
f 161//1 100//1 160//1
f 116//1 152//1 153//1
f 162//1 100//1 161//1
f 116//1 151//1 152//1
f 163//1 100//1 162//1
f 116//1 150//1 151//1
f 164//1 100//1 163//1
f 117//1 150//1 116//1
f 164//1 99//1 100//1
f 117//1 149//1 150//1
f 165//1 99//1 164//1
f 117//1 148//1 149//1
f 166//1 99//1 165//1
f 118//1 148//1 117//1
f 166//1 98//1 99//1
f 118//1 147//1 148//1
f 167//1 98//1 166//1
f 118//1 146//1 147//1
f 168//1 98//1 167//1
f 119//1 146//1 118//1
f 119//1 145//1 146//1
f 168//1 97//1 98//1
f 169//1 97//1 168//1
f 119//1 169//1 145//1
f 119//1 97//1 169//1
f 120//1 97//1 119//1
f 120//1 96//1 97//1
f 121//1 95//1 120//1
f 95//1 96//1 120//1
f 121//1 94//1 95//1
f 122//1 94//1 121//1
f 122//1 93//1 94//1
f 122//1 92//1 93//1
f 123//1 92//1 122//1
f 123//1 91//1 92//1
f 124//1 91//1 123//1
f 124//1 90//1 91//1
f 72//1 144//1 71//1
f 124//1 89//1 90//1
f 73//1 144//1 72//1
f 74//1 144//1 73//1
f 125//1 89//1 124//1
f 125//1 88//1 89//1
f 75//1 144//1 74//1
f 76//1 144//1 75//1
f 125//1 87//1 88//1
f 77//1 144//1 76//1
f 125//1 86//1 87//1
f 78//1 144//1 77//1
f 126//1 86//1 125//1
f 79//1 144//1 78//1
f 126//1 85//1 86//1
f 80//1 144//1 79//1
f 126//1 84//1 85//1
f 81//1 144//1 80//1
f 82//1 144//1 81//1
f 126//1 83//1 84//1
f 83//1 144//1 82//1
f 126//1 144//1 83//1
f 127//1 144//1 126//1
f 127//1 143//1 144//1
f 128//1 143//1 127//1
f 128//1 142//1 143//1
f 128//1 141//1 142//1
f 129//1 141//1 128//1
f 129//1 140//1 141//1
f 129//1 139//1 140//1
f 130//1 139//1 129//1
f 130//1 138//1 139//1
f 130//1 137//1 138//1
f 131//1 137//1 130//1
f 131//1 136//1 137//1
f 131//1 135//1 136//1
f 131//1 134//1 135//1
f 132//1 134//1 131//1
f 132//1 133//1 134//1
f 172//1 170//1 171//1
f 172//1 177//1 170//1
f 173//2 177//2 172//2
f 174//1 176//1 173//1
f 176//2 177//2 173//2
f 174//1 175//1 176//1
